# xmcd
#
# Track frame offsets: 
#        150
#        17363
#        31849
#        53282
#        85101
#        103064
#        124319
#        140445
#        153779
#        172275
#
# Disc length: 2514 seconds
#
# Revision: 0
# Processed by: cddbd v1.5.2PL0 Copyright (c) Steve Scherf et al.
# Submitted via: ExactAudioCopy v1.0b1
#
DISCID=7209d00a
DTITLE=Various Artist - Rock and Guitar Gods CD 3
DYEAR=1900
DGENRE=
TTITLE0=Lou Reed - White Light White Heat
TTITLE1=Lou Reed - Vicious
TTITLE2=Lou Reed - Sweet Jane
TTITLE3=Lou Reed - I'm Waiting For My Man
TTITLE4=Iggy Pop - Sister Midnight
TTITLE5=Iggy Pop - I Need Somebody
TTITLE6=Iggy Pop - Search and Destroy
TTITLE7=Sex Pistols - Pretty Vacant
TTITLE8=Sex Pistols - Anarchy In The UK
TTITLE9=Sex Pistols - God Save The Queen
EXTD=
EXTT0=
EXTT1=
EXTT2=
EXTT3=
EXTT4=
EXTT5=
EXTT6=
EXTT7=
EXTT8=
EXTT9=
PLAYORDER=
